{
    "asset" : {
        "generator" : "Khronos glTF Blender I/O v3.2.43",
        "version" : "2.0"
    },
    "scene" : 0,
    "scenes" : [
        {
            "name" : "Scene",
            "nodes" : [
                0
            ]
        }
    ],
    "nodes" : [
        {
            "mesh" : 0,
            "name" : "Cone",
            "rotation" : [
                0,
                0.3826834559440613,
                0,
                0.9238795638084412
            ],
            "scale" : [
                0.050000011920928955,
                0.050000011920928955,
                0.050000011920928955
            ]
        }
    ],
    "materials" : [
        {
            "doubleSided" : true,
            "name" : "Material",
            "pbrMetallicRoughness" : {
                "baseColorFactor" : [
                    0.031062917783856392,
                    0.031062917783856392,
                    0.031062917783856392,
                    1
                ],
                "metallicFactor" : 0,
                "roughnessFactor" : 0.5
            }
        },
        {
            "doubleSided" : true,
            "name" : "Material.002",
            "pbrMetallicRoughness" : {
                "baseColorFactor" : [
                    0.36723849177360535,
                    0.36723849177360535,
                    0.36723849177360535,
                    1
                ],
                "metallicFactor" : 0,
                "roughnessFactor" : 0.5
            }
        },
        {
            "doubleSided" : true,
            "emissiveFactor" : [
                0.1442961534485221,
                0.15669474843889475,
                1
            ],
            "name" : "Material.003",
            "pbrMetallicRoughness" : {
                "baseColorFactor" : [
                    0.00929943099617958,
                    0.007046366576105356,
                    0.8000000715255737,
                    1
                ],
                "metallicFactor" : 0.5,
                "roughnessFactor" : 0.5
            }
        }
    ],
    "meshes" : [
        {
            "name" : "Cone",
            "primitives" : [
                {
                    "attributes" : {
                        "POSITION" : 0,
                        "NORMAL" : 1,
                        "TEXCOORD_0" : 2
                    },
                    "indices" : 3,
                    "material" : 0
                },
                {
                    "attributes" : {
                        "POSITION" : 4,
                        "NORMAL" : 5,
                        "TEXCOORD_0" : 6
                    },
                    "indices" : 7,
                    "material" : 1
                },
                {
                    "attributes" : {
                        "POSITION" : 8,
                        "NORMAL" : 9,
                        "TEXCOORD_0" : 10
                    },
                    "indices" : 11,
                    "material" : 2
                }
            ]
        }
    ],
    "accessors" : [
        {
            "bufferView" : 0,
            "componentType" : 5126,
            "count" : 3498,
            "max" : [
                2.270580768585205,
                1.2281521558761597,
                2.06467866897583
            ],
            "min" : [
                -2.513178825378418,
                -1.7208232879638672,
                -2.6972262859344482
            ],
            "type" : "VEC3"
        },
        {
            "bufferView" : 1,
            "componentType" : 5126,
            "count" : 3498,
            "type" : "VEC3"
        },
        {
            "bufferView" : 2,
            "componentType" : 5126,
            "count" : 3498,
            "type" : "VEC2"
        },
        {
            "bufferView" : 3,
            "componentType" : 5123,
            "count" : 5385,
            "type" : "SCALAR"
        },
        {
            "bufferView" : 4,
            "componentType" : 5126,
            "count" : 1081,
            "max" : [
                2.0007505416870117,
                0.8628196716308594,
                2.0407447814941406
            ],
            "min" : [
                -2.2545359134674072,
                -1.9337527751922607,
                -2.1503143310546875
            ],
            "type" : "VEC3"
        },
        {
            "bufferView" : 5,
            "componentType" : 5126,
            "count" : 1081,
            "type" : "VEC3"
        },
        {
            "bufferView" : 6,
            "componentType" : 5126,
            "count" : 1081,
            "type" : "VEC2"
        },
        {
            "bufferView" : 7,
            "componentType" : 5123,
            "count" : 1302,
            "type" : "SCALAR"
        },
        {
            "bufferView" : 8,
            "componentType" : 5126,
            "count" : 1151,
            "max" : [
                3.3428027629852295,
                2.438697099685669,
                2.06467866897583
            ],
            "min" : [
                -3.5854005813598633,
                -1.7208232879638672,
                -3.920499324798584
            ],
            "type" : "VEC3"
        },
        {
            "bufferView" : 9,
            "componentType" : 5126,
            "count" : 1151,
            "type" : "VEC3"
        },
        {
            "bufferView" : 10,
            "componentType" : 5126,
            "count" : 1151,
            "type" : "VEC2"
        },
        {
            "bufferView" : 11,
            "componentType" : 5123,
            "count" : 1422,
            "type" : "SCALAR"
        }
    ],
    "bufferViews" : [
        {
            "buffer" : 0,
            "byteLength" : 41976,
            "byteOffset" : 0
        },
        {
            "buffer" : 0,
            "byteLength" : 41976,
            "byteOffset" : 41976
        },
        {
            "buffer" : 0,
            "byteLength" : 27984,
            "byteOffset" : 83952
        },
        {
            "buffer" : 0,
            "byteLength" : 10770,
            "byteOffset" : 111936
        },
        {
            "buffer" : 0,
            "byteLength" : 12972,
            "byteOffset" : 122708
        },
        {
            "buffer" : 0,
            "byteLength" : 12972,
            "byteOffset" : 135680
        },
        {
            "buffer" : 0,
            "byteLength" : 8648,
            "byteOffset" : 148652
        },
        {
            "buffer" : 0,
            "byteLength" : 2604,
            "byteOffset" : 157300
        },
        {
            "buffer" : 0,
            "byteLength" : 13812,
            "byteOffset" : 159904
        },
        {
            "buffer" : 0,
            "byteLength" : 13812,
            "byteOffset" : 173716
        },
        {
            "buffer" : 0,
            "byteLength" : 9208,
            "byteOffset" : 187528
        },
        {
            "buffer" : 0,
            "byteLength" : 2844,
            "byteOffset" : 196736
        }
    ],
    "buffers" : [
        {
            "byteLength" : 199580,
            "uri" : "data:application/octet-stream;base64,"
        }
    ]
}
